<?xml version="1.0" encoding="UTF-8"?>
<!DOCTYPE svg PUBLIC "-//W3C//DTD SVG 1.1//EN" "http://www.w3.org/Graphics/SVG/1.1/DTD/svg11.dtd">
<!-- Creator: CorelDRAW 2019 (64-Bit) -->
<svg xmlns="http://www.w3.org/2000/svg" xml:space="preserve" width="126px" height="61px" version="1.1" style="shape-rendering:geometricPrecision; text-rendering:geometricPrecision; image-rendering:optimizeQuality; fill-rule:evenodd; clip-rule:evenodd"
viewBox="0 0 20.87 10.07"
 xmlns:xlink="http://www.w3.org/1999/xlink"
 xmlns:xodm="http://www.corel.com/coreldraw/odm/2003">
 <defs>
  <style type="text/css">
   <![CDATA[
    .fil1 {fill:#494949;fill-rule:nonzero}
    .fil2 {fill:#808184;fill-rule:nonzero}
    .fil3 {fill:url(#id0);fill-rule:nonzero}
    .fil4 {fill:url(#id1);fill-rule:nonzero}
    .fil0 {fill:url(#id2);fill-rule:nonzero}
   ]]>
  </style>
  <linearGradient id="id0" gradientUnits="userSpaceOnUse" x1="9.31" y1="1.73" x2="11.95" y2="1.73">
   <stop offset="0" style="stop-opacity:1; stop-color:#E5B117"/>
   <stop offset="0.54902" style="stop-opacity:1; stop-color:#F0B70D"/>
   <stop offset="1" style="stop-opacity:1; stop-color:#F9BD05"/>
  </linearGradient>
  <linearGradient id="id1" gradientUnits="userSpaceOnUse" x1="0.58" y1="1.73" x2="3.22" y2="1.73">
   <stop offset="0" style="stop-opacity:1; stop-color:#1A5984"/>
   <stop offset="1" style="stop-opacity:1; stop-color:#107D8D"/>
  </linearGradient>
  <linearGradient id="id2" gradientUnits="userSpaceOnUse" x1="9.31" y1="1.73" x2="11.95" y2="1.73">
   <stop offset="0" style="stop-opacity:1; stop-color:#FFB302"/>
   <stop offset="0.490196" style="stop-opacity:1; stop-color:#FFBB02"/>
   <stop offset="1" style="stop-opacity:1; stop-color:#FFC301"/>
  </linearGradient>
 </defs>
 <g id="Layer_x0020_1">
  <metadata id="CorelCorpID_0Corel-Layer"/>
  <g id="_2149782544992">
   <g>
    <g>
     <path class="fil0" d="M11.95 0.77c-0.01,0.02 -0.01,0.05 -0.01,0.07 0,-0.02 0,-0.05 0.01,-0.07zm-0.02 0.1c-0.03,0.17 -0.11,0.33 -0.22,0.46 0.11,-0.13 0.19,-0.29 0.22,-0.46zm-0.46 0.7l-0.03 0.03 -0.05 0.05c-0.29,0.29 -0.75,0.75 -1.13,1.13l-0.34 0.34 0.34 -0.34c0.38,-0.38 0.84,-0.84 1.12,-1.13l0.02 -0.01c0.01,-0.01 0.01,-0.01 0.02,-0.02l0.02 -0.02 0.03 -0.03zm-1.81 1.81l-0.07 0.07c0,0 0,0 0,0 -0.06,-0.06 -0.12,-0.14 -0.16,-0.22 0.04,0.08 0.1,0.15 0.16,0.22 0,0 0,0 0,0l0.07 -0.07zm-0.15 -1.2c0.03,-0.03 0.06,-0.06 0.09,-0.1l0 0 0 0c-0.03,0.04 -0.06,0.07 -0.09,0.1zm2.19 -2.18l0 0c0.03,0.04 0.07,0.08 0.09,0.13 -0.02,-0.05 -0.06,-0.09 -0.09,-0.13l0 0zm0.14 0.21c0.03,0.05 0.05,0.11 0.07,0.16 0,0.01 0,0.02 0,0.03 0,-0.01 0,-0.02 -0.01,-0.03 -0.01,-0.05 -0.03,-0.11 -0.06,-0.16zm0.08 0.22l0 0.01c0,0 0,0 0,0 0.01,0.01 0.01,0.03 0.01,0.04 0,-0.01 0,-0.03 -0.01,-0.04 0,0 0,0 0,0 0,0 0,-0.01 0,-0.01z"/>
     <path class="fil1" d="M10.26 2.78l-0.34 0.34 0.34 -0.34 0 0zm-0.6 0.6l-0.07 0.07 0 0 0.07 -0.07zm2.04 -3.38l0 0c0.03,0.04 0.07,0.08 0.09,0.13 -0.02,-0.05 -0.06,-0.09 -0.09,-0.13l0 0zm0.14 0.21c0.03,0.05 0.05,0.11 0.07,0.16 0,0.01 0,0.02 0,0.03 0,-0.01 0,-0.02 -0.01,-0.03 -0.01,-0.05 -0.03,-0.11 -0.06,-0.16zm0.08 0.22l0 0.01c0,0 0,0 0,0 0.01,0.01 0.01,0.03 0.01,0.04 0,-0.01 0,-0.03 -0.01,-0.04 0,0 0,0 0,0 0,0 0,-0.01 0,-0.01zm0.03 0.34c-0.01,0.02 -0.01,0.05 -0.01,0.07 0,-0.02 0,-0.05 0.01,-0.07zm-0.02 0.1c-0.03,0.17 -0.11,0.33 -0.22,0.46 0.11,-0.13 0.19,-0.29 0.22,-0.46zm-0.46 0.7l-0.03 0.03 -0.05 0.05 -0.05 0.05 0.04 -0.05 0.02 -0.01c0.01,-0.01 0.01,-0.01 0.02,-0.02l0.02 -0.02 0.03 -0.03z"/>
     <path class="fil1" d="M20.86 2.76l-3.84 0.01c-0.25,0 -0.5,0.06 -0.72,0.19 -0.32,0.18 -0.56,0.49 -0.67,0.84 -0.04,0.13 -0.06,0.27 -0.06,0.41l0 0.1 -0.09 -0.04c-0.1,-0.05 -0.17,-0.14 -0.17,-0.25l0 -0.29c-0.03,0 -0.05,0 -0.08,0 -0.05,0.22 -0.24,0.56 -0.66,0.56 -0.01,0 -0.02,0 -0.02,0l-0.36 0 0.01 -0.07c0.02,-0.08 0.02,-0.16 0.02,-0.24 0,-0.18 -0.05,-0.36 -0.13,-0.52 -0.13,-0.25 -0.33,-0.45 -0.59,-0.57 -0.17,-0.07 -0.35,-0.11 -0.54,-0.11l-2.7 0c0.38,-0.38 0.84,-0.84 1.13,-1.13l0.05 -0.05 0.03 -0.03 -0.03 0.03 -0.02 0.02c-0.01,0.01 -0.01,0.01 -0.02,0.02l-0.02 0.01c-0.28,0.29 -0.74,0.75 -1.12,1.13 -0.36,0.37 -0.66,0.66 -0.67,0.67 0,0 0,0 0,0l-0.01 -0.01c-0.01,-0.01 -0.02,-0.02 0.01,0.01 0,0 0,0 0,0 0,0 0,0 0,0 0.02,0.01 0.03,0.03 0.06,0.05 0.14,0.13 0.37,0.23 0.62,0.23l0.19 0 2.53 0c0.07,0 0.14,0.03 0.19,0.08 0.02,0.02 0.03,0.03 0.04,0.05 0.03,0.04 0.05,0.09 0.05,0.14 0,0.08 -0.03,0.15 -0.08,0.21 -0.06,0.05 -0.14,0.09 -0.21,0.09l-4.53 0 0 -1.51 -1.27 0c-0.66,0 -1.15,0.5 -1.2,1.15 -0.02,0.36 0.11,0.71 0.36,0.96 0.24,0.23 0.55,0.36 0.88,0.36l0.28 0 0 0.3c0,0.15 -0.12,0.27 -0.26,0.27l-0.13 0c-0.48,0 -0.87,0.39 -0.87,0.86l0 0.09 1.08 0c0.3,0 0.59,-0.12 0.8,-0.33 0.22,-0.22 0.34,-0.5 0.33,-0.81l0 -0.38 0.29 0 4.47 -0.01c0.02,0 0.04,0 0.06,0 0.11,-0.01 0.22,-0.04 0.33,-0.08l0.02 -0.01 0.03 0.01c0.13,0.05 0.28,0.07 0.42,0.07 0.06,0 0.12,0 0.18,-0.01 0.19,-0.03 0.38,-0.11 0.54,-0.22l0.04 -0.03 0.04 0.03c0.06,0.04 0.12,0.07 0.18,0.1 0.11,0.06 0.22,0.09 0.34,0.11 0.05,0.02 0.11,0.02 0.16,0.02l3.88 0c0.39,0 0.75,-0.16 1.02,-0.43 0.27,-0.28 0.42,-0.64 0.42,-1.03l-0.01 -1.02zm-9.15 -1.43c0.11,-0.13 0.19,-0.29 0.22,-0.46 -0.03,0.17 -0.11,0.33 -0.22,0.46zm0.23 -0.49c0,-0.02 0,-0.05 0.01,-0.07 -0.01,0.02 -0.01,0.05 -0.01,0.07zm-0.01 -0.36c0,-0.01 0,-0.03 -0.01,-0.04 0,0 0,0 0,0l0 -0.01c0,0 0,0.01 0,0.01 0,0 0,0 0,0 0.01,0.01 0.01,0.03 0.01,0.04zm-0.02 -0.08c0,-0.01 0,-0.02 0,-0.03 -0.02,-0.05 -0.04,-0.11 -0.07,-0.16 0.03,0.05 0.05,0.11 0.06,0.16 0.01,0.01 0.01,0.02 0.01,0.03zm-0.12 -0.27c-0.02,-0.05 -0.06,-0.09 -0.09,-0.13l0 0 0 0c0.03,0.04 0.07,0.08 0.09,0.13zm-2.19 1.95l0 0c-0.03,0.04 -0.06,0.07 -0.09,0.1 0.03,-0.03 0.06,-0.06 0.09,-0.1l0 0zm-2.39 2.22l0 0c-0.15,0 -0.28,-0.13 -0.28,-0.29 0,-0.15 0.13,-0.28 0.28,-0.28l0.29 0 0 0.57 -0.29 0zm12.57 -0.46l0 0c0,0.24 -0.19,0.44 -0.44,0.44l-2.82 0.01 0 -0.17c0,-0.2 0.15,-0.36 0.34,-0.4 0.02,0 0.04,0 0.06,0l2.86 -0.01 0 0.13z"/>
     <path class="fil1" d="M2.97 0l0 0c0.01,0.01 0.01,0.02 0.02,0.03 -0.01,-0.01 -0.01,-0.02 -0.02,-0.03l0 0zm0.02 0.03c0.07,0.09 0.13,0.18 0.16,0.28 -0.03,-0.1 -0.09,-0.19 -0.16,-0.28zm0.2 0.39c0,0 0,0.01 0,0.02 0,-0.01 0,-0.02 0,-0.02zm0.02 0.1c0.01,0.05 0.01,0.1 0.01,0.15 0,0.17 -0.04,0.33 -0.12,0.47 0.08,-0.14 0.12,-0.3 0.12,-0.47 0,-0.05 0,-0.1 -0.01,-0.15zm-1.68 2.26l0 0 -0.34 0.34 0.34 -0.34z"/>
     <path class="fil1" d="M4.22 2.78l-2.69 0c0.33,-0.33 0.73,-0.73 1.01,-1.01l-1.01 1.01c-0.36,0.37 -0.66,0.66 -0.67,0.67l0 0c0,0 0.03,0.02 0.06,0.05 0.11,0.12 0.37,0.23 0.62,0.23l0.19 0 2.52 0c0.08,0 0.15,0.03 0.2,0.08 0.02,0.02 0.03,0.03 0.04,0.05 0.03,0.04 0.04,0.09 0.05,0.14 0,0.08 -0.03,0.15 -0.08,0.21 -0.06,0.05 -0.14,0.09 -0.22,0.09l-3.28 0c-0.53,0 -0.96,0.43 -0.95,0.96l4.21 -0.01c0.68,0 1.23,-0.55 1.23,-1.23 0,-0.69 -0.55,-1.24 -1.23,-1.24zm-1.12 -1.64c0.08,-0.14 0.12,-0.3 0.12,-0.47 0,-0.05 0,-0.1 -0.01,-0.15 0,0.05 0.01,0.1 0.01,0.15 0,0.17 -0.04,0.33 -0.12,0.47zm0.09 -0.7c0,-0.01 0,-0.02 0,-0.02 0,0 0,0.01 0,0.02zm-0.04 -0.13c-0.03,-0.1 -0.09,-0.19 -0.16,-0.28 0.07,0.09 0.13,0.18 0.16,0.28zm-0.16 -0.28c-0.01,-0.01 -0.01,-0.02 -0.02,-0.03l0 0 0 0c0.01,0.01 0.01,0.02 0.02,0.03zm-2.16 2.09c-0.01,0.02 -0.02,0.03 -0.04,0.04 0.02,-0.01 0.03,-0.02 0.04,-0.04zm-0.25 0.71c0,0.03 0.01,0.05 0.01,0.07 0,-0.02 -0.01,-0.04 -0.01,-0.07z"/>
     <path class="fil1" d="M0.01 5.26c0,0 4.51,-0.01 4.53,-0.01l-4.53 0.01z"/>
    </g>
    <g>
     <path class="fil2" d="M0 9.45c0.01,-0.1 0.05,-0.2 0.12,-0.27 0.08,-0.08 0.18,-0.12 0.29,-0.12l0.54 0c0.13,0 0.23,-0.1 0.23,-0.23l0 -0.02c0,-0.1 -0.06,-0.19 -0.16,-0.22l-0.58 -0.19c-0.27,-0.08 -0.44,-0.32 -0.44,-0.59 0,-0.35 0.28,-0.63 0.62,-0.63l0.95 0c0,0.1 -0.04,0.2 -0.12,0.27 -0.07,0.08 -0.18,0.12 -0.29,0.12l-0.54 0c-0.13,0 -0.23,0.11 -0.23,0.24 0,0.1 0.06,0.19 0.16,0.22l0.24 0.08 0.35 0.11c0.26,0.08 0.43,0.32 0.43,0.59l0 0.02c0,0.34 -0.28,0.62 -0.62,0.62l-0.95 0z"/>
     <path class="fil2" d="M2.7 9.45c-0.47,-0.01 -0.75,-0.26 -0.75,-0.68l0 -0.46c0,-0.23 0.18,-0.42 0.4,-0.43l0 0.69c0,0.08 0,0.16 0.01,0.22 0.02,0.2 0.13,0.31 0.33,0.31 0.2,0 0.32,-0.11 0.33,-0.31 0.01,-0.07 0.01,-0.15 0.01,-0.22l0 -0.26c0,-0.23 0.18,-0.42 0.41,-0.43l0 0.82c0,0.06 0,0.11 -0.01,0.16 -0.01,0.18 -0.09,0.32 -0.22,0.43 -0.13,0.1 -0.3,0.16 -0.51,0.16z"/>
     <path class="fil2" d="M6.45 9.45c-0.47,0 -0.75,-0.25 -0.75,-0.67l0 -0.47c0,-0.23 0.18,-0.42 0.41,-0.43l0 0.69c-0.01,0.08 0,0.16 0,0.23 0.02,0.2 0.13,0.3 0.33,0.3 0.21,0 0.32,-0.1 0.34,-0.3 0,-0.08 0,-0.15 0,-0.23l0 -0.26c0,-0.23 0.19,-0.42 0.41,-0.43l0 0.83c0,0.06 0,0.1 -0.01,0.15 -0.01,0.18 -0.08,0.33 -0.21,0.43 -0.13,0.11 -0.31,0.16 -0.52,0.16z"/>
     <path class="fil2" d="M7.66 9.45l0 -1.84c0,-0.23 0.18,-0.41 0.4,-0.43l0 1.22c0,0.01 0,0.1 0,0.2 0,0.05 0,0.18 0,0.2l0 0.65 -0.4 0z"/>
     <path class="fil2" d="M8.69 9.45l-0.54 -0.58 0 0.01c-0.03,-0.04 -0.05,-0.08 -0.07,-0.12 -0.02,-0.05 -0.03,-0.11 -0.03,-0.16 0,-0.1 0.03,-0.2 0.1,-0.28l0.74 -0.76c0.07,0.07 0.11,0.17 0.11,0.27 0,0.11 -0.04,0.21 -0.12,0.28l-0.46 0.49 0.81 0.85 -0.54 0z"/>
     <path class="fil2" d="M3.92 9.45l0 -1.84c0,-0.23 0.18,-0.41 0.41,-0.43l0 1.22c-0.01,0.01 -0.01,0.1 -0.01,0.2 0,0.05 0.01,0.18 0.01,0.2l0 0.65 -0.41 0z"/>
     <path class="fil2" d="M4.95 9.45l-0.54 -0.58 0 0.01c-0.03,-0.04 -0.05,-0.08 -0.07,-0.12 -0.02,-0.05 -0.03,-0.11 -0.03,-0.16 0,-0.1 0.04,-0.2 0.1,-0.28l0.74 -0.76c0.07,0.07 0.11,0.17 0.11,0.27 0,0.11 -0.04,0.21 -0.11,0.28l-0.47 0.49 0.81 0.85 -0.54 0z"/>
     <path class="fil2" d="M11.16 9.46c-0.29,0 -0.55,-0.11 -0.75,-0.3 -0.19,-0.19 -0.29,-0.46 -0.29,-0.74 0,-0.29 0.1,-0.55 0.29,-0.75 0.2,-0.19 0.46,-0.3 0.75,-0.3 0.18,0 0.35,0.05 0.5,0.13 0.14,0.08 0.26,0.19 0.35,0.32l-0.15 0.09c-0.05,0.02 -0.11,0.04 -0.16,0.04 -0.07,0 -0.14,-0.02 -0.19,-0.06 -0.1,-0.07 -0.22,-0.1 -0.35,-0.1 -0.37,0 -0.62,0.25 -0.62,0.63 0,0.37 0.25,0.63 0.62,0.63 0.12,0 0.23,-0.03 0.32,-0.09 0.07,-0.04 0.15,-0.06 0.22,-0.06 0.07,0 0.14,0.02 0.2,0.05l0.11 0.07c-0.09,0.13 -0.2,0.24 -0.34,0.31 -0.16,0.09 -0.33,0.13 -0.51,0.13z"/>
     <path class="fil2" d="M16.4 7.83c-0.13,0 -0.24,-0.11 -0.24,-0.24 0,-0.13 0.11,-0.24 0.24,-0.24 0.13,0 0.24,0.11 0.24,0.24 0,0.13 -0.11,0.24 -0.24,0.24z"/>
     <path class="fil2" d="M16.2 9.45l0 -1.48 0.06 0c0.19,0 0.33,0.15 0.33,0.33l0 1.15 -0.39 0z"/>
     <path class="fil2" d="M17.53 9.46c-0.06,0 -0.11,-0.01 -0.16,-0.04 -0.13,-0.07 -0.19,-0.21 -0.19,-0.45l0 -0.73 -0.23 0 0 -0.37 0.23 0 0 -0.02c0,-0.16 0.1,-0.3 0.25,-0.34l0.15 -0.04 0 0.4 0.3 0 0 0.09c0,0.16 -0.13,0.28 -0.28,0.28l-0.02 0 0 0.73c0,0.14 0.11,0.16 0.22,0.16 0.02,0 0.05,-0.01 0.08,-0.01 -0.01,0.09 -0.04,0.18 -0.11,0.24 -0.06,0.07 -0.15,0.1 -0.24,0.1z"/>
     <path class="fil2" d="M13.74 8.22c-0.08,-0.12 -0.2,-0.21 -0.35,-0.27 -0.12,-0.05 -0.24,-0.07 -0.34,-0.07 -0.04,0 -0.07,0 -0.1,0l0 0c-0.19,0.02 -0.36,0.11 -0.48,0.26 -0.13,0.14 -0.19,0.33 -0.19,0.53 0,0.2 0.06,0.39 0.19,0.53 0.12,0.15 0.29,0.24 0.48,0.25 0.01,0 0.03,0 0.05,0 0.17,0 0.32,-0.07 0.44,-0.2l0.04 -0.05 0 0.25 0.39 0 0 -0.8c0,-0.16 -0.04,-0.3 -0.13,-0.43zm-0.26 0.44l0 0c0,0.24 -0.16,0.41 -0.39,0.41 -0.24,0 -0.4,-0.17 -0.4,-0.42 0,-0.24 0.16,-0.42 0.4,-0.42l0 0c0.23,0.01 0.39,0.18 0.39,0.42l0 0.01z"/>
     <path class="fil2" d="M19.29 7.95c-0.12,-0.05 -0.23,-0.07 -0.33,-0.07 -0.04,0 -0.07,0 -0.1,0l0 0c-0.19,0.02 -0.36,0.11 -0.48,0.26 -0.13,0.14 -0.2,0.33 -0.2,0.53 0,0.2 0.07,0.38 0.2,0.53 0.12,0.15 0.29,0.23 0.48,0.25 0.01,0 0.03,0 0.04,0 0.18,0 0.33,-0.07 0.44,-0.21l0.04 -0.04 0 0.26 0.4 0 0 -0.81c0,-0.31 -0.2,-0.59 -0.49,-0.7zm0.1 0.71l0 0c-0.01,0.24 -0.17,0.41 -0.4,0.41 -0.23,0 -0.39,-0.17 -0.39,-0.42 0,-0.25 0.16,-0.42 0.39,-0.42l0 0c0.24,0.01 0.4,0.18 0.4,0.42l0 0.01z"/>
     <path class="fil2" d="M15.7 8.18c-0.06,-0.09 -0.15,-0.16 -0.25,-0.21 -0.11,-0.06 -0.25,-0.09 -0.4,-0.09 -0.07,0 -0.17,0.02 -0.3,0.07 -0.14,0.06 -0.26,0.16 -0.34,0.28 -0.09,0.13 -0.13,0.28 -0.13,0.43l0 1.41c0.22,-0.01 0.39,-0.19 0.39,-0.42l0 -0.27 0.03 0.01c0.14,0.04 0.28,0.06 0.4,0.06 0.21,0 0.4,-0.06 0.54,-0.19 0.15,-0.14 0.23,-0.34 0.23,-0.58 0,-0.13 -0.04,-0.33 -0.17,-0.5zm-0.63 0.92l0 0c-0.23,0 -0.4,-0.17 -0.4,-0.41l0 -0.04c0,-0.24 0.16,-0.41 0.39,-0.42l0.01 0c0.23,0 0.39,0.17 0.39,0.43 0,0.26 -0.16,0.44 -0.39,0.44z"/>
     <path class="fil2" d="M20.56 9.45c-0.06,0 -0.12,-0.01 -0.17,-0.05 -0.14,-0.1 -0.22,-0.27 -0.23,-0.5l0 -0.14 0 -1.53c0.22,0.01 0.4,0.2 0.4,0.42l0 1.07c0,0.1 0.02,0.17 0.04,0.21 0.03,0.15 0.19,0.17 0.26,0.17 0.01,0.01 0.01,0.02 0.01,0.05 0,0.08 -0.03,0.15 -0.09,0.21 -0.06,0.06 -0.14,0.09 -0.22,0.09 0,0 0,0 0,0z"/>
    </g>
   </g>
   <path class="fil3" d="M11.95 0.67c0,0.27 -0.1,0.52 -0.3,0.71 0,0 -0.08,0.09 -0.21,0.22l-0.02 0.02c-0.01,0.01 -0.01,0.01 -0.02,0.02l-0.01 0.01c-0.29,0.29 -0.75,0.75 -1.13,1.13 -0.36,0.37 -0.66,0.66 -0.67,0.67 0,0 0,0 0,0 -0.34,-0.35 -0.4,-0.96 0.01,-1.37l2.1 -2.08c0,0 0,0 0,0 0.09,0.11 0.16,0.23 0.2,0.37 0.01,0.01 0.01,0.03 0.02,0.04 0,0.01 0,0.02 0,0.03 0,0 0,0 0,0 0.02,0.07 0.03,0.15 0.03,0.23z"/>
   <path class="fil4" d="M3.22 0.67c0,0.27 -0.11,0.52 -0.3,0.71 0,0 -0.08,0.09 -0.21,0.22l-0.02 0.02c-0.01,0.01 -0.01,0.01 -0.02,0.02l-0.02 0.01c-0.28,0.29 -0.74,0.75 -1.12,1.13 -0.36,0.37 -0.66,0.66 -0.67,0.67 0,0 0,0 0,0 -0.34,-0.35 -0.4,-0.96 0.01,-1.37l2.1 -2.08c0,0 0,0 0,0 0.09,0.11 0.16,0.23 0.2,0.37 0.01,0.01 0.01,0.03 0.01,0.04 0.01,0.01 0.01,0.02 0.01,0.03 0,0 0,0 0,0 0.02,0.07 0.03,0.15 0.03,0.23z"/>
  </g>
 </g>
</svg>
