<svg width="260" height="120" viewBox="0 0 929 448" fill="none" xmlns="http://www.w3.org/2000/svg">
<g clip-path="url(#clip0)">
<path d="M531.954 29.6751C531.989 41.6923 527.326 53.0439 518.807 61.5575C518.807 61.5575 515.126 65.2363 509.341 71.0522L506.816 73.5747C494.16 86.2926 473.721 106.718 456.682 123.781C440.59 139.897 427.512 152.965 427.022 153.491C426.987 153.491 426.987 153.526 426.987 153.526C420.991 147.43 416.96 139.652 415.312 131.313C415.277 131.278 415.312 131.278 415.312 131.278C412.682 118.175 416.048 103.81 427.197 92.7041H427.232L520.7 0C520.7 0 520.7 0 520.735 0C524.977 4.83491 528.097 10.4406 529.956 16.5018C530.131 17.0273 530.271 17.5528 530.411 18.1134C530.552 18.5689 530.692 19.0243 530.797 19.5499C530.797 19.5849 530.797 19.5849 530.797 19.5849C531.533 22.8432 531.919 26.2066 531.954 29.6751Z" fill="url(#paint0_linear)"/>
<path d="M456.717 123.781C440.625 139.897 427.548 152.965 427.057 153.491C421.062 147.395 417.03 139.617 415.347 131.313C415.312 131.278 415.347 131.278 415.347 131.278C412.753 118.175 416.083 103.81 427.267 92.7041L520.7 0C520.7 0 520.7 0 520.735 0C524.977 4.83491 528.097 10.4406 529.956 16.5018C530.131 17.0273 530.271 17.5528 530.411 18.1134C530.552 18.5689 530.692 19.0243 530.797 19.5499C530.797 19.5849 530.797 19.5849 530.797 19.5849C531.498 22.8432 531.884 26.2066 531.919 29.6751C531.954 41.6923 527.291 53.0439 518.772 61.5575C518.772 61.5575 515.09 65.2363 509.306 71.0522L506.816 73.5747L456.506 123.781H456.717Z" fill="white"/>
<path d="M928.79 122.765L757.736 123.115C746.517 123.15 735.473 126.093 725.797 131.594C711.282 139.932 700.624 153.281 695.856 169.222C694.103 175.038 693.227 181.029 693.156 187.09V191.61L688.984 189.788C684.567 187.826 681.692 183.586 681.412 178.646L681.377 166.034C680.325 166.034 679.133 165.999 678.151 165.964C675.732 175.774 667.353 190.734 648.806 190.909C648.316 191.014 647.93 191.014 647.685 191.014H631.768L632.329 187.616C632.89 184.217 633.135 180.784 633.065 177.14C632.855 168.872 630.786 160.953 627.14 153.841C621.601 143.015 612.45 134.081 600.74 128.721C593.273 125.287 585.279 123.535 576.935 123.535L456.717 123.816C473.721 106.788 494.16 86.3277 506.852 73.6098L509.376 71.0872C515.196 65.2363 518.842 61.5926 518.842 61.5926C527.361 53.0789 532.024 41.7274 531.989 29.7102C531.954 26.2066 531.568 22.8782 530.867 19.6199C530.867 19.6199 530.867 19.6199 530.867 19.5849C530.762 19.0944 530.622 18.6389 530.482 18.1484C530.341 17.6229 530.201 17.0974 530.026 16.5368C528.168 10.4406 525.047 4.86994 520.805 0.0350342C520.77 0.0350342 520.77 0.0350342 520.77 0.0350342L427.302 92.7392H427.267C416.118 103.845 412.753 118.21 415.382 131.313C415.382 131.313 415.347 131.313 415.382 131.348C416.995 139.512 420.921 147.149 426.706 153.176C426.18 152.72 425.479 152.089 426.881 153.351C426.952 153.421 427.022 153.491 427.092 153.561C427.092 153.561 427.092 153.561 427.127 153.526C427.688 154.051 428.529 154.822 429.756 155.943C435.962 161.619 446.304 165.999 457.348 166.069L465.797 166.139L578.197 165.893C581.458 165.893 584.718 167.26 587.067 169.607C587.698 170.273 588.329 171.009 588.785 171.744C590.047 173.636 590.713 175.774 590.819 178.086C590.924 181.414 589.626 184.673 587.242 187.125C584.718 189.683 581.247 191.189 577.741 191.189H376.361L376.221 124.026L319.881 124.131C290.115 124.131 268.238 146.554 266.24 175.178C265.153 191.189 270.973 206.815 282.332 218.097C292.675 228.397 306.488 234.108 321.283 234.108L333.904 234.073V247.526C333.904 254.043 328.61 259.333 322.089 259.333H316.48C295.199 259.333 277.915 276.571 277.915 297.873V301.832L325.876 301.726C339.409 301.691 352.1 296.401 361.636 286.871C371.172 277.307 376.396 264.589 376.361 251.065L376.326 234.003H388.947L587.838 233.582C588.75 233.582 589.662 233.547 590.608 233.477C595.587 233.127 600.635 231.936 605.298 229.939L606.35 229.518L607.437 229.904C613.467 232.111 619.812 233.197 626.404 233.197C628.963 233.197 631.557 233.022 634.117 232.671C642.881 231.375 651.296 228.012 658.483 222.756L660.236 221.495L661.989 222.756C664.513 224.613 667.213 226.26 670.087 227.591C674.715 229.833 679.624 231.445 684.988 232.356C687.337 232.987 689.791 233.302 692.28 233.302H864.877C882.056 233.232 898.148 226.12 910.278 213.927C922.409 201.77 929 185.619 928.93 168.416L928.79 122.765ZM321.073 191.119C314.131 191.119 308.521 185.513 308.521 178.576C308.521 171.639 314.131 166.034 321.073 166.034H333.764L333.799 191.119H321.073ZM880.688 170.798C880.688 181.66 871.888 190.524 861.02 190.524L735.613 190.804V183.411C735.613 174.547 741.924 167.12 750.654 165.718C751.6 165.578 752.512 165.543 753.388 165.543L880.688 165.263V170.798Z" fill="white"/>
<path d="M26.645 131.278C26.2594 129.211 25.9789 127.074 25.8737 124.972C25.3478 113.69 29.2044 102.024 38.6353 92.7041L132.068 0C136.345 4.83491 139.466 10.4406 141.289 16.5018C141.464 17.0273 141.604 17.5528 141.745 18.1134C141.92 18.5689 142.06 19.0243 142.13 19.5499C142.13 19.5849 142.13 19.5849 142.13 19.5849C142.866 22.8432 143.252 26.2066 143.322 29.6751C143.357 41.6923 138.659 53.0439 130.14 61.5575C130.14 61.5575 126.494 65.2363 120.674 71.0522L119.622 72.1032C119.412 72.3485 119.166 72.5587 118.921 72.8039L118.15 73.5747L67.8397 123.781H68.05C51.9228 139.897 38.8807 152.965 38.3548 153.491C36.8122 151.949 35.4449 150.338 34.2178 148.621C33.4115 147.5 32.6051 146.309 31.9039 145.082C31.5533 144.487 31.2027 143.821 30.8872 143.19C29.555 140.738 28.5032 138.11 27.6968 135.413C27.6968 135.413 27.6618 135.413 27.6968 135.377C27.3112 134.046 26.9606 132.715 26.6801 131.313C26.645 131.278 26.645 131.278 26.645 131.278Z" fill="white"/>
<path d="M187.672 123.606L68.0497 123.781C85.0885 106.753 105.493 86.2926 118.149 73.5747L118.886 72.839C119.131 72.5937 119.376 72.3835 119.587 72.1383L120.639 71.0872C126.493 65.2363 130.105 61.5925 130.105 61.5925C138.624 53.0789 143.322 41.7274 143.287 29.7102C143.252 26.2066 142.866 22.8782 142.095 19.6199C142.095 19.6199 142.095 19.6199 142.095 19.5849C142.025 19.0944 141.884 18.6389 141.709 18.1484C141.569 17.6229 141.429 17.0974 141.253 16.5368C139.465 10.4406 136.345 4.86995 132.068 0L38.6 92.7392H38.5649C29.169 102.059 25.2774 113.725 25.8384 125.007C25.9085 127.109 26.189 129.211 26.6097 131.313C26.6097 131.313 26.6097 131.313 26.6097 131.348C26.8902 132.75 27.2408 134.081 27.6264 135.413C27.5914 135.448 27.6264 135.448 27.6264 135.448C28.4328 138.145 29.5196 140.773 30.8168 143.225C31.2025 143.856 31.553 144.487 31.9036 145.082C32.6048 146.309 33.4112 147.465 34.2175 148.621C35.4446 150.338 36.8119 151.949 38.3545 153.491C38.3545 153.491 39.5115 154.472 40.9489 155.908C45.9975 160.953 57.5319 165.964 68.5405 166.034L77.0249 166.104L189.39 165.858C192.65 165.858 195.946 167.225 198.295 169.572C198.926 170.238 199.557 170.974 200.013 171.709C201.24 173.601 201.906 175.738 202.011 178.051C202.151 181.379 200.889 184.638 198.47 187.09C195.946 189.648 192.475 191.154 188.969 191.154H42.5266C19.1421 191.154 0.210078 210.529 0.315255 233.933L187.847 233.617C218.208 233.547 242.785 208.917 242.785 178.611C242.785 148.201 218.103 123.535 187.672 123.606Z" fill="white"/>
<path d="M0.280487 233.933C0.280487 233.933 201.03 233.477 201.976 233.407L0.280487 233.933Z" fill="white"/>
<path d="M0.0350592 420.357C0.280474 415.837 2.13861 411.633 5.36406 408.41C8.79987 404.941 13.3926 403.049 18.3009 403.049H42.2815C48.0312 403.049 52.7291 398.355 52.7291 392.609V391.943C52.7291 387.353 49.7841 383.359 45.4368 381.993L19.3878 373.725C7.78315 370.046 0 359.43 0 347.273C0 331.962 12.446 319.525 27.7669 319.525H70.0133C69.7679 324.044 67.9098 328.248 64.6843 331.472C61.2485 334.94 56.6557 336.832 51.7474 336.832H27.7669C22.0172 336.832 17.3193 341.527 17.3193 347.273C17.3193 351.862 20.2642 355.856 24.6116 357.223L35.1995 360.586L50.6606 365.491C62.2652 369.17 70.0484 379.786 70.0484 391.943V392.609C70.0484 407.919 57.6023 420.357 42.2815 420.357H0.0350592Z" fill="white"/>
<path d="M120.043 420.357C99.1125 420.147 86.6314 408.9 86.6314 390.366V369.555C86.6314 359.325 94.695 350.951 104.792 350.426V381.047C104.547 384.621 104.827 388.194 105.037 391.102C105.774 400.001 110.892 404.696 119.832 404.696C128.773 404.696 133.891 400.001 134.628 391.137C134.873 387.914 134.873 384.445 134.873 381.117V369.801C134.873 359.465 143.042 350.986 153.244 350.461L153.034 387.248C153.034 389.771 153.034 391.943 152.823 394.15C152.192 402.033 148.826 408.62 143.112 413.245C137.292 417.869 129.334 420.357 120.043 420.357Z" fill="white"/>
<path d="M287.1 420.567C266.17 420.357 253.689 409.111 253.689 390.577V369.52C253.689 359.29 261.752 350.916 271.849 350.391V381.257C271.604 384.831 271.884 388.404 272.095 391.312C272.831 400.211 277.95 404.906 286.89 404.906C295.83 404.906 300.949 400.211 301.685 391.347C301.93 388.124 301.93 384.656 301.93 381.327V369.766C301.93 359.43 310.099 350.951 320.301 350.426L320.091 387.423C320.091 389.946 320.091 392.118 319.881 394.325C319.249 402.208 315.884 408.795 310.169 413.42C304.349 418.115 296.391 420.567 287.1 420.567Z" fill="white"/>
<path d="M340.811 420.567V338.724C340.811 328.494 348.875 320.12 358.972 319.63V373.795C358.937 374.285 358.586 378.069 358.586 382.483C358.586 384.971 358.937 390.752 358.972 391.277V420.567H340.811Z" fill="white"/>
<path d="M386.704 420.567L362.793 394.746L362.688 394.851C361.426 393.274 360.374 391.488 359.638 389.526C358.761 387.283 358.341 384.901 358.341 382.483C358.341 378.034 359.848 373.69 362.618 370.221L395.538 336.131C398.729 339.46 400.447 343.839 400.447 348.499C400.447 353.159 398.694 357.573 395.468 360.937L374.783 382.624L410.894 420.602H386.704V420.567Z" fill="white"/>
<path d="M174.42 420.567V338.724C174.42 328.494 182.483 320.12 192.58 319.63V373.795C192.545 374.285 192.195 378.069 192.195 382.483C192.195 384.971 192.545 390.752 192.58 391.277V420.567H174.42Z" fill="white"/>
<path d="M220.277 420.567L196.367 394.746L196.262 394.851C195 393.274 193.948 391.488 193.212 389.526C192.335 387.283 191.914 384.901 191.914 382.483C191.914 378.034 193.422 373.69 196.192 370.221L229.112 336.131C232.303 339.46 234.02 343.839 234.02 348.499C234.02 353.159 232.268 357.573 229.042 360.937L208.357 382.624L244.468 420.602H220.277V420.567Z" fill="white"/>
<path d="M496.895 420.812C483.958 420.812 472.108 416.083 463.588 407.464C455.139 398.95 450.476 387.213 450.476 374.425C450.476 361.637 455.139 349.935 463.588 341.387C472.108 332.803 483.923 328.038 496.895 328.038C504.783 328.038 512.461 329.965 519.157 333.609C525.433 337.042 530.727 341.912 534.548 347.763L527.817 351.687C525.678 352.948 523.224 353.579 520.735 353.579C517.72 353.579 514.81 352.668 512.321 350.916C508.044 347.938 502.715 346.362 496.93 346.362C480.452 346.362 469.373 357.643 469.373 374.425C469.373 391.207 480.452 402.489 496.93 402.489C502.154 402.489 507.097 401.192 511.129 398.74C514.144 396.918 517.545 395.972 520.98 395.972C524.101 395.972 527.186 396.778 529.885 398.355L534.618 401.087C530.867 406.938 525.608 411.808 519.298 415.242C512.601 418.885 504.853 420.812 496.895 420.812Z" fill="white"/>
<path d="M729.934 348.219C724.114 348.219 719.205 343.314 719.205 337.498C719.205 331.682 724.114 326.777 729.934 326.777C735.753 326.777 740.662 331.682 740.662 337.498C740.662 343.314 735.718 348.219 729.934 348.219Z" fill="white"/>
<path d="M721.134 420.567V354.735H724.044C732.107 354.735 738.698 361.322 738.698 369.38V420.567H721.134Z" fill="white"/>
<path d="M780.349 420.953C777.789 420.953 775.37 420.287 773.091 418.991C767.412 415.767 764.888 409.636 764.888 399.195V366.717H754.475V349.97H764.888V348.989C764.888 342.052 769.375 336.026 776.036 334.029L782.452 332.102V349.97H795.845V354.315C795.845 361.147 790.271 366.717 783.434 366.717H782.452V399.195C782.452 405.116 787.536 405.922 792.479 405.922C793.461 405.922 794.548 405.887 795.845 405.817C795.705 409.846 794.022 413.595 791.112 416.433C788.202 419.341 784.275 420.953 780.349 420.953Z" fill="white"/>
<path d="M611.749 365.842C607.927 360.306 602.528 356.102 596.253 353.719C590.608 351.617 585.454 350.531 580.932 350.531C579.214 350.531 577.671 350.531 576.444 350.741H576.374C568.135 351.477 560.492 355.436 554.988 361.953C549.484 368.399 546.469 376.808 546.469 385.602C546.469 394.431 549.519 402.839 554.988 409.286C560.492 415.767 568.1 419.761 576.339 420.497C577.04 420.532 577.741 420.567 578.443 420.567C586.191 420.567 592.782 417.414 598.076 411.283L599.829 409.286V420.567H617.534V384.621C617.604 377.859 615.605 371.377 611.749 365.842ZM600.109 385.181C599.864 396.112 592.817 403.435 582.509 403.435C571.992 403.435 564.91 396.007 564.91 384.971C564.91 373.935 572.132 366.262 582.509 366.262H582.545C592.887 366.507 600.109 374.18 600.109 384.971V385.181Z" fill="white"/>
<path d="M858.811 353.509C853.342 351.512 848.329 350.461 843.911 350.461C842.193 350.461 840.651 350.461 839.424 350.671H839.353C831.079 351.407 823.472 355.366 817.967 361.883C812.463 368.329 809.448 376.738 809.448 385.532C809.448 394.325 812.498 402.769 817.967 409.216C823.472 415.697 831.044 419.691 839.318 420.427C840.02 420.462 840.721 420.497 841.422 420.497C849.17 420.497 855.761 417.344 861.055 411.213L862.808 409.216V420.707H880.513V384.971C880.583 370.992 871.818 358.344 858.811 353.509ZM863.089 385.146C862.843 396.077 855.796 403.4 845.489 403.4C834.936 403.4 827.889 395.972 827.889 384.936C827.889 373.9 835.111 366.227 845.489 366.227H845.524C855.866 366.472 863.089 374.145 863.089 384.936V385.146Z" fill="white"/>
<path d="M699.046 364.055C695.996 359.956 692.28 356.732 687.898 354.42C682.779 351.757 676.749 350.391 669.982 350.391C666.792 350.391 662.374 351.547 656.765 353.824C650.489 356.382 645.16 360.691 641.339 366.297C637.517 371.903 635.554 378.419 635.554 385.181V448C645.406 447.474 653.259 439.311 653.259 429.326V417.099L654.556 417.554C660.446 419.481 666.722 420.602 672.191 420.602C681.622 420.602 690.141 417.554 696.172 412.053C702.868 405.957 706.409 396.988 706.409 386.197C706.409 380.381 704.481 371.552 699.046 364.055ZM670.648 404.871C660.446 404.871 653.049 397.093 653.049 386.407V384.866C653.049 374.11 660.271 366.402 670.613 366.157H670.648C681.166 366.157 688.248 373.865 688.248 385.286C688.248 397.023 681.166 404.871 670.648 404.871Z" fill="white"/>
<path d="M915.046 420.567C912.347 420.567 909.752 419.726 907.544 418.185C901.303 413.77 897.937 406.238 897.552 395.762V389.596L897.341 321.767C907.193 322.292 915.117 330.456 915.152 340.441L915.292 387.809C915.292 392.223 916.168 395.342 916.905 397.198C918.587 403.75 925.739 404.661 928.755 404.906C928.86 405.222 929 405.782 929 406.833C929.035 410.407 927.633 413.77 925.108 416.328C922.409 419.026 918.763 420.567 915.046 420.567Z" fill="white"/>
<path d="M531.954 29.6751C531.989 41.7274 527.291 53.0439 518.807 61.5575C518.807 61.5575 515.161 65.2012 509.341 71.0522L508.289 72.1032C508.044 72.3485 507.798 72.5937 507.553 72.839L506.816 73.5747C494.16 86.2576 473.721 106.718 456.717 123.746C440.625 139.862 427.547 152.93 427.057 153.456L427.022 153.491C411.631 137.83 408.966 110.853 427.232 92.7041L520.7 0C520.7 0 520.7 0 520.735 0.0350356C524.977 4.86995 528.133 10.4756 529.956 16.5368C530.131 17.0623 530.271 17.5879 530.446 18.1484C530.587 18.6389 530.727 19.0944 530.832 19.5849C530.832 19.6199 530.832 19.6199 530.832 19.6199C531.533 22.8432 531.919 26.2066 531.954 29.6751Z" fill="url(#paint1_linear)"/>
<path d="M143.287 29.6751C143.322 41.7274 138.624 53.0439 130.14 61.5575C130.14 61.5575 126.494 65.2012 120.674 71.0522L119.622 72.1032C119.377 72.3485 119.131 72.5937 118.886 72.839L118.15 73.5747C105.493 86.2576 85.0537 106.718 68.05 123.746C51.9578 139.862 38.8807 152.93 38.3899 153.456L38.3548 153.491C22.9288 137.83 20.2643 110.888 38.5652 92.7392L132.033 0C132.033 0 132.033 0 132.068 0.0350356C136.31 4.86995 139.466 10.4756 141.289 16.5368C141.464 17.0623 141.604 17.5879 141.78 18.1484C141.92 18.6389 142.06 19.0944 142.165 19.5849C142.165 19.6199 142.165 19.6199 142.165 19.6199C142.866 22.8432 143.252 26.2066 143.287 29.6751Z" fill="url(#paint2_linear)"/>
</g>
<defs>
<linearGradient id="paint0_linear" x1="414.488" y1="76.7738" x2="531.964" y2="76.7738" gradientUnits="userSpaceOnUse">
<stop stop-color="#fff"/>
<stop offset="1" stop-color="#fff"/>
</linearGradient>
<linearGradient id="paint1_linear" x1="414.47" y1="76.756" x2="531.964" y2="76.756" gradientUnits="userSpaceOnUse">
<stop stop-color="#fff"/>
<stop offset="0.5505" stop-color="#fff"/>
<stop offset="1" stop-color="#fff"/>
</linearGradient>
<linearGradient id="paint2_linear" x1="25.8005" y1="76.756" x2="143.295" y2="76.756" gradientUnits="userSpaceOnUse">
<stop stop-color="#fff"/>
<stop offset="1" stop-color="#fff"/>
</linearGradient>
<clipPath id="clip0">
<rect width="929" height="448" fill="white"/>
</clipPath>
</defs>
</svg>
